<svg id="Layer_1" data-name="Layer 1" xmlns="http://www.w3.org/2000/svg" width="471.47" height="75.96" viewBox="0 0 471.47 75.96">
  <defs>
    <style>
      .cls-1 {
        fill: #fff;
      }
    </style>
  </defs>
  <g>
    <path class="cls-1" d="M4.16,68.41,16.91,55.12c6,4.17,13.53,7.1,19.78,7.1,6.76,0,9.62-1.92,9.62-5.19,0-3.49-4.29-4.62-11.44-7.1L24.33,46.1c-9.11-3.16-17-9.81-17-20.4,0-12.51,13-22.77,31.48-22.77,9.63,0,20.29,3.16,28.1,9.81L55.68,24.91C50,21.42,45,19.61,38.77,19.61c-5.47,0-8.85,1.7-8.85,5,0,3.5,4.82,4.74,12.49,7.33l10.28,3.49C63.23,39,69.21,45.31,69.21,55.45c0,12.4-12,23.45-33,23.45C25.5,78.9,13.27,75.51,4.16,68.41Z" transform="translate(-4.16 -2.93)"/>
    <path class="cls-1" d="M82.74,4.29h54.64V20.52H105.12V32H132.7V48.24H105.12V61.31h33.56V77.54H82.74Z" transform="translate(-4.16 -2.93)"/>
    <path class="cls-1" d="M155.08,4.29h54.64V20.52H177.45V32H205V48.24H177.45V61.31H211V77.54H155.08Z" transform="translate(-4.16 -2.93)"/>
    <path class="cls-1" d="M219.34,4.29h22.9l4.68,32c.91,7.67,2,15.33,2.87,23h.52c1.56-7.67,3.12-15.44,4.68-23l8.07-32h18.73l8.07,32c1.56,7.33,3.12,15.22,4.68,23h.52c.91-7.78,1.95-15.56,2.86-23l4.69-32h21.33L309.89,77.54H281.53L275,48.47c-1.3-5.64-2.34-11.72-3.12-17.13h-.52c-.91,5.41-1.82,11.49-3.12,17.13L262,77.54H234.17Z" transform="translate(-4.16 -2.93)"/>
    <path class="cls-1" d="M334.61,4.29h54.64V20.52H357V32h27.59V48.24H357V61.31h33.57V77.54H334.61Z" transform="translate(-4.16 -2.93)"/>
    <path class="cls-1" d="M406.94,4.29h22.9L448.57,37l8.07,16.45h.52c-1-7.88-2.86-18.93-2.86-27.94V4.29h21.33V77.54H452.74L434,44.75l-8.06-16.34h-.52c1,8.34,2.86,18.93,2.86,28V77.54H406.94Z" transform="translate(-4.16 -2.93)"/>
  </g>
</svg>
